<svg xmlns="http://www.w3.org/2000/svg" fill="none" viewBox="0 0 53 53" height="53" width="53">
<g clip-path="url(#clip0_273_372)">
<path fill="#C8DDF2" d="M0 5.936C0 2.65742 2.65742 0 5.936 0H47.064C50.3426 0 53 2.65742 53 5.936V47.064C53 50.3426 50.3426 53 47.064 53H5.936C2.65742 53 0 50.3426 0 47.064"></path>
<path fill="#060F38" d="M30.5566 27.4803H20.7728L17.2642 19.2642H26.2074L29.0684 14.9277H19.2835L16.9346 18.483L16.9314 18.4798L14.0715 22.8088L17.9087 31.8157H27.6925L30.5566 27.4803Z"></path>
<path fill="#060F38" d="M38.9285 30.2043L35.0913 21.1943H25.3075L22.4466 25.5234H32.2314L35.7358 33.7458H26.7957L23.9316 38.0717H33.7197L36.0686 34.526V34.5302L38.9285 30.2043Z"></path>
</g>
<defs>
<clipPath id="clip0_273_372">
<rect fill="white" height="53" width="53"></rect>
</clipPath>
</defs>
</svg>
