<svg xmlns="http://www.w3.org/2000/svg" fill="none" viewBox="0 0 78 29" height="29" width="78">
<g clip-path="url(#clip0_206_89)">
<path fill="#060F38" d="M20.6737 15.6548H8.40208L4.00417 5.40679H15.2192L18.8079 0H6.53667L3.58958 4.43142L3.58917 4.43018L0 9.82743L4.81375 21.0616H17.085L20.6737 15.6548Z"></path>
<path fill="#060F38" d="M31.1762 19.0503L26.3642 7.81537H14.0925L10.5033 13.2126H22.7754L27.1704 23.4673H15.9571L12.3679 28.8649H24.64L27.5854 24.4439L27.5871 24.448L31.1762 19.0503Z"></path>
<path fill="#060F38" d="M36.645 13.0353V12.8207H37.9921V12.9595C37.9921 14.0086 38.4371 14.5394 40.2163 14.5394C41.4746 14.5394 41.9321 14.1979 41.9321 13.4144C41.9321 12.6309 41.6779 12.3653 40.3688 12.1001L38.92 11.8092C37.4583 11.5312 36.6704 10.8235 36.6704 9.48394C36.6704 8.23303 37.6492 7.06997 39.8479 7.06997C42.1992 7.06997 43.1396 8.38427 43.1396 9.88834V10.04H41.7925V9.90077C41.7925 8.86449 41.335 8.32087 39.81 8.32087C38.5517 8.32087 38.0433 8.67472 38.0433 9.42054C38.0433 10.1664 38.3863 10.4063 39.5558 10.6594L41.0046 10.9623C42.6058 11.2909 43.305 12.0873 43.305 13.3639C43.305 14.6405 42.3392 15.7903 40.1658 15.7903C37.7129 15.7903 36.6454 14.6653 36.6454 13.0349L36.645 13.0353Z"></path>
<path fill="#060F38" d="M44.8475 17.6987V16.5866H45.7117C46.2583 16.5866 46.4488 16.498 46.6521 16.0306L46.8933 15.4998L44.2117 9.38242H45.7242L46.995 12.4283L47.5671 13.7931H47.6688L48.19 12.4283L49.3467 9.38242H50.8592L47.8725 16.4093C47.4021 17.5214 46.7921 17.8123 45.8008 17.8123C45.4579 17.8123 45.0638 17.7617 44.8475 17.6983V17.6987Z"></path>
<path fill="#060F38" d="M52.0712 15.6639V9.38243H53.3296V10.5579H53.3804C53.6729 9.88793 54.3462 9.25605 55.5792 9.25605C57.2187 9.25605 57.9558 10.2923 57.9558 11.7206V15.6639H56.5833V12.0239C56.5833 10.8993 56.2275 10.4315 55.0708 10.4315C53.9142 10.4315 53.4442 10.8616 53.4442 12.0367V15.6643H52.0717L52.0712 15.6639Z"></path>
<path fill="#060F38" d="M60.2358 13.7301V10.5198H59.1808V9.38243H60.2613L60.5538 7.8278H61.6087V9.38243H63.515V10.5198H61.6087V13.6668C61.6087 14.3239 61.8883 14.4378 62.74 14.4378H63.5154V15.55C63.2483 15.6133 62.8162 15.6639 62.3846 15.6639C60.9737 15.6639 60.2367 15.1456 60.2367 13.7301H60.2358Z"></path>
<path fill="#060F38" d="M64.6888 14.1097C64.6888 13.0734 65.4513 12.5298 66.7988 12.34L69.01 12.0119V11.6704C69.01 10.7348 68.5779 10.4568 67.5867 10.4568C66.5954 10.4568 66.1888 10.773 66.1888 11.607V11.7964H64.8671V11.67C64.8671 10.2671 65.9729 9.25605 67.6629 9.25605C69.3529 9.25605 70.3192 10.3176 70.3192 11.8469V15.6639H69.0483V14.6782H68.9846C68.6163 15.2719 67.8917 15.7903 66.6971 15.7903C65.5662 15.7903 64.6892 15.2089 64.6892 14.1093L64.6888 14.1097ZM67.1417 14.7034C68.0313 14.7034 69.01 14.3496 69.01 13.0858V12.9719L67.0021 13.2752C66.2775 13.3763 66.0233 13.5408 66.0233 14.0082C66.0233 14.5008 66.3413 14.7034 67.1417 14.7034Z"></path>
<path fill="#060F38" d="M71.3658 15.6639L73.6283 12.5045V12.4158L71.3658 9.38242H72.9675L74.6704 11.7081H74.7592L76.4496 9.38242H78L75.7379 12.4664V12.5675L78 15.6639H76.3988L74.6958 13.2628H74.6071L72.9167 15.6639H71.3663H71.3658Z"></path>
<path fill="#060F38" d="M36.7213 28.8732V20.4052H38.0938V28.8732H36.7213Z"></path>
<path fill="#060F38" d="M39.8354 28.8732V22.5917H41.0938V23.7672H41.1446C41.4371 23.0972 42.1104 22.4654 43.3433 22.4654C44.9829 22.4654 45.72 23.5016 45.72 24.9299V28.8728H44.3475V25.2328C44.3475 24.1082 43.9917 23.6404 42.835 23.6404C41.6783 23.6404 41.2083 24.0705 41.2083 25.2456V28.8732H39.8358H39.8354Z"></path>
<path fill="#060F38" d="M47.1571 26.7501V26.7248H48.4788V26.9523C48.4788 27.6351 48.7838 27.8879 49.9913 27.8879C51.0079 27.8879 51.1988 27.6604 51.1988 27.1926C51.1988 26.6871 50.8938 26.5355 49.9658 26.371L48.9875 26.2069C47.8563 26.0047 47.1446 25.4992 47.1446 24.3618C47.1446 23.2244 48.085 22.4662 49.7375 22.4662C51.2246 22.4662 52.3429 23.1992 52.3429 24.6274V24.7409H51.0338V24.5893C51.0338 24.008 50.8304 23.5911 49.6992 23.5911C48.6954 23.5911 48.4538 23.8567 48.4538 24.3365C48.4538 24.8164 48.6825 24.956 49.5721 25.1329L50.6396 25.3351C51.8596 25.575 52.4954 26.1186 52.4954 27.1549C52.4954 28.3176 51.5675 29.0004 49.9663 29.0004C48.1233 29.0004 47.1575 28.2799 47.1575 26.7505L47.1571 26.7501Z"></path>
<path fill="#060F38" d="M54.3392 26.9395V23.7291H53.2842V22.5917H54.3646L54.6571 21.0371H55.7121V22.5917H57.6183V23.7291H55.7121V26.8761C55.7121 27.5332 55.9917 27.6472 56.8433 27.6472H57.6187V28.7593C57.3517 28.8227 56.9196 28.8732 56.4879 28.8732C55.0771 28.8732 54.34 28.3549 54.34 26.9395H54.3392Z"></path>
<path fill="#060F38" d="M58.75 21.7958L58.7371 20.4057H60.1096V21.7958H58.7496H58.75ZM58.75 28.8732V22.5536H60.1225V28.8732H58.75Z"></path>
<path fill="#060F38" d="M62.1438 26.9395V23.7291H61.0888V22.5917H62.1692L62.4617 21.0371H63.5167V22.5917H65.4229V23.7291H63.5167V26.8761C63.5167 27.5332 63.7963 27.6472 64.6479 27.6472H65.4233V28.7593C65.1563 28.8227 64.7242 28.8732 64.2925 28.8732C62.8817 28.8732 62.1446 28.3549 62.1446 26.9395H62.1438Z"></path>
<path fill="#060F38" d="M66.6433 26.4721V22.5917H68.0158V26.2318C68.0158 27.3567 68.4479 27.8241 69.5408 27.8241C70.6338 27.8241 71.1929 27.3691 71.1929 26.1302V22.5913H72.5654V28.8728H71.2946V27.6219H71.2438C70.9388 28.342 70.2654 28.9996 69.0325 28.9996C67.3804 28.9996 66.6429 27.8999 66.6429 26.4717L66.6433 26.4721Z"></path>
<path fill="#060F38" d="M74.6513 26.9395V23.7291H73.5963V22.5917H74.6767L74.9692 21.0371H76.0242V22.5917H77.9304V23.7291H76.0242V26.8761C76.0242 27.5332 76.3037 27.6472 77.1554 27.6472H77.9308V28.7593C77.6637 28.8227 77.2317 28.8732 76.8 28.8732C75.3892 28.8732 74.6521 28.3549 74.6521 26.9395H74.6513Z"></path>
</g>
<defs>
<clipPath id="clip0_206_89">
<rect fill="white" height="29" width="78"></rect>
</clipPath>
</defs>
</svg>
