<svg width="104" height="53" viewBox="0 0 104 53" fill="none" xmlns="http://www.w3.org/2000/svg">
<path d="M51.5869 1.31543C57.2183 17.8943 57.2183 35.9016 51.5869 52.4805H0.956039V1.31543H51.5869Z" stroke="#060F38"></path>
<path d="M103.435 52.9807H51.9454C57.7673 36.0914 57.7673 17.7047 51.9454 0.81543H103.435V52.9807Z" fill="#060F38"></path>
<path d="M98.201 10.3794C98.619 9.90738 98.5826 9.52115 98.1101 9.52115H95.8083C95.3418 9.52115 95.1056 9.4721 94.3544 10.2323L87.9274 17.2825V10.3794C87.9274 10.1518 87.838 9.93349 87.679 9.77253C87.5199 9.61157 87.3042 9.52115 87.0793 9.52115H85.5043C85.2794 9.52115 85.0637 9.61157 84.9047 9.77253C84.7456 9.93349 84.6563 10.1518 84.6563 10.3794V26.0615C84.6563 26.2891 84.7456 26.5074 84.9047 26.6684C85.0637 26.8294 85.2794 26.9198 85.5043 26.9198H87.0793C87.3042 26.9198 87.5199 26.8294 87.679 26.6684C87.838 26.5074 87.9274 26.2891 87.9274 26.0615V21.9601L90.7805 18.8335L95.1843 26.0554C95.2907 26.2851 95.4524 26.484 95.6546 26.634C95.8567 26.784 96.0929 26.8801 96.3413 26.9136H98.6917C99.1581 26.9136 99.2974 26.5274 99.0188 26.0554L92.9612 16.3752L98.2192 10.3733L98.201 10.3794Z" fill="#E9F1FA"></path>
<path d="M60.5229 26.0618C60.5229 26.1745 60.5448 26.2862 60.5875 26.3903C60.6301 26.4944 60.6925 26.589 60.7713 26.6687C60.85 26.7484 60.9435 26.8117 61.0464 26.8548C61.1493 26.8979 61.2596 26.9201 61.371 26.9201H63.0853C63.3102 26.9201 63.5259 26.8297 63.6849 26.6687C63.844 26.5078 63.9333 26.2895 63.9333 26.0618V10.3798C63.9333 10.1521 63.844 9.93383 63.6849 9.77287C63.5259 9.61191 63.3102 9.52148 63.0853 9.52148H61.371C61.2596 9.52148 61.1493 9.54368 61.0464 9.58682C60.9435 9.62995 60.85 9.69317 60.7713 9.77287C60.6925 9.85257 60.6301 9.94719 60.5875 10.0513C60.5448 10.1554 60.5229 10.2671 60.5229 10.3798V26.0618Z" fill="#E9F1FA"></path>
<path d="M77.7082 10.3798C77.7082 10.1521 77.7976 9.93383 77.9566 9.77287C78.1157 9.61191 78.3314 9.52148 78.5563 9.52148H80.2524C80.4773 9.52148 80.6931 9.61191 80.8521 9.77287C81.0111 9.93383 81.1005 10.1521 81.1005 10.3798V26.0618C81.1005 26.2895 81.0111 26.5078 80.8521 26.6687C80.6931 26.8297 80.4773 26.9201 80.2524 26.9201H78.5684C78.457 26.9201 78.3468 26.8979 78.2439 26.8548C78.141 26.8117 78.0475 26.7484 77.9688 26.6687C77.89 26.589 77.8275 26.4944 77.7849 26.3903C77.7423 26.2862 77.7204 26.1745 77.7204 26.0618V19.6002H70.8874V26.0618C70.8874 26.2895 70.7981 26.5078 70.639 26.6687C70.48 26.8297 70.2643 26.9201 70.0394 26.9201H68.3432C68.1183 26.9201 67.9026 26.8297 67.7436 26.6687C67.5845 26.5078 67.4952 26.2895 67.4952 26.0618V10.3798C67.4952 10.1521 67.5845 9.93383 67.7436 9.77287C67.9026 9.61191 68.1183 9.52148 68.3432 9.52148H70.0454C70.2703 9.52148 70.486 9.61191 70.6451 9.77287C70.8041 9.93383 70.8935 10.1521 70.8935 10.3798V16.6882H77.7204V10.3798H77.7082Z" fill="#E9F1FA"></path>
<path d="M25.6951 42.5879L15.3445 26.9141L25.7 11.1621L25.6951 42.5879Z" stroke="#060F38"></path>
<path d="M26.231 44.2624L37.6798 26.9251L26.225 9.50195L26.231 44.2624Z" fill="#060F38"></path>
</svg>
